<svg xmlns="http://www.w3.org/2000/svg" version="1.1" xmlns:xlink="http://www.w3.org/1999/xlink" xmlns:svgjs="http://svgjs.dev/svgjs" width="1500" height="1500" viewBox="0 0 1500 1500"><rect width="1500" height="1500" fill="#000000"></rect><g transform="matrix(0.6666666666666666,0,0,0.6666666666666666,249.39393939393932,539.5771611256368)"><svg viewBox="0 0 396 167" data-background-color="#ffffff" preserveAspectRatio="xMidYMid meet" height="632" width="1500" xmlns="http://www.w3.org/2000/svg" xmlns:xlink="http://www.w3.org/1999/xlink"><g id="tight-bounds" transform="matrix(1,0,0,1,0.24000000000003752,-0.0966437689430677)"><svg viewBox="0 0 395.5199999999999 167.19328753788614" height="167.19328753788614" width="395.5199999999999"><g><svg viewBox="0 0 397.4975999999999 168.02925397557556" height="167.19328753788614" width="395.5199999999999"><g><rect width="397.4975999999999" height="4.806598343844991" x="0" y="86.24254179986904" fill="#ffffff" opacity="1" stroke-width="0" stroke="transparent" fill-opacity="1" class="rect-yte-0" data-fill-palette-color="primary" rx="1%" id="yte-0" data-palette-color="#359756"></rect></g><g><rect width="397.4975999999999" height="4.806598343844991" x="0" y="97.3404992325164" fill="#ffffff" opacity="1" stroke-width="0" stroke="transparent" fill-opacity="1" class="rect-yte-1" data-fill-palette-color="primary" rx="1%" id="yte-1" data-palette-color="#359756"></rect></g><g transform="matrix(1,0,0,1,0.9887999999999693,114.72981575396608)"><svg viewBox="0 0 395.52 53.29943822160951" height="53.29943822160951" width="395.52"><g id="textblocktransform"><svg viewBox="0 0 395.52 53.29943822160951" height="53.29943822160951" width="395.52" id="textblock"><g><svg viewBox="0 0 395.52 53.29943822160951" height="53.29943822160951" width="395.52"><g transform="matrix(1,0,0,1,0,0)"><svg width="395.52" viewBox="4.54 -37.94 283.33 38.18" height="53.29943822160951" data-palette-color="#359756"><path d="M4.54-35.99L10.5-35.99 10.5-4.44 27.05-4.44 27.05 0 4.54 0 4.54-35.99ZM44.97-27.69L44.97-27.69Q47.8-27.69 50.1-26.59 52.39-25.49 54-23.58 55.61-21.68 56.49-19.14 57.37-16.6 57.37-13.67L57.37-13.67Q57.37-10.74 56.44-8.18 55.52-5.62 53.83-3.74 52.15-1.86 49.83-0.81 47.51 0.24 44.68 0.24L44.68 0.24Q41.79 0.24 39.43-0.83 37.06-1.9 35.42-3.81 33.79-5.71 32.91-8.25 32.03-10.79 32.03-13.77 32.03-16.75 32.98-19.34 33.93-21.92 35.62-23.75 37.3-25.59 39.69-26.64 42.09-27.69 44.97-27.69ZM44.58-4.39L44.58-4.39Q46.04-4.39 47.24-5.1 48.44-5.81 49.29-7.06 50.14-8.3 50.66-10.01 51.17-11.72 51.17-13.67L51.17-13.67Q51.17-15.63 50.71-17.33 50.24-19.04 49.44-20.34 48.63-21.63 47.46-22.41 46.29-23.19 44.82-23.19L44.82-23.19Q43.36-23.19 42.14-22.46 40.92-21.73 40.06-20.48 39.21-19.24 38.74-17.55 38.28-15.87 38.28-13.92L38.28-13.92Q38.28-11.96 38.69-10.23 39.11-8.5 39.94-7.23 40.77-5.96 41.92-5.18 43.06-4.39 44.58-4.39ZM101.41-15.48L101.41-0.93 101.41 0 95.55 0 95.55-14.99Q95.55-16.65 95.53-18.14 95.5-19.63 95.21-20.8 94.92-21.97 94.26-22.63 93.6-23.29 92.23-23.29L92.23-23.29Q91.99-23.29 91.38-23.22 90.77-23.14 89.94-22.92 89.11-22.71 88.11-22.22 87.1-21.73 86.13-20.95L86.13-20.95Q86.13-19.04 86.15-17.92 86.18-16.8 86.18-15.48L86.18-15.48 86.18 0 80.27 0 80.27-14.99Q80.27-16.65 80.27-18.14 80.27-19.63 79.98-20.8 79.68-21.97 79-22.63 78.32-23.29 77-23.29L77-23.29Q76.56-23.29 75.78-23.17 75-23.05 74.14-22.75 73.29-22.46 72.43-22.02 71.58-21.58 70.99-21L70.99-21 70.99 0 65.03 0 65.03-27.54 70.36-27.54 70.99-24.71Q72.21-25.83 74.14-26.78 76.07-27.73 78.17-27.73L78.17-27.73Q80.51-27.73 82.08-26.71 83.64-25.68 85.2-23.68L85.2-23.68Q86.03-24.61 87.06-25.39 88.08-26.17 89.18-26.71 90.28-27.25 91.35-27.54 92.43-27.83 93.4-27.83L93.4-27.83Q95.06-27.83 96.53-27.17 97.99-26.51 99.09-25.29 100.19-24.07 100.8-22.39 101.41-20.7 101.41-18.75L101.41-18.75 101.41-15.48ZM146.18-15.48L146.18-0.93 146.18 0 140.32 0 140.32-14.99Q140.32-16.65 140.3-18.14 140.28-19.63 139.98-20.8 139.69-21.97 139.03-22.63 138.37-23.29 137-23.29L137-23.29Q136.76-23.29 136.15-23.22 135.54-23.14 134.71-22.92 133.88-22.71 132.88-22.22 131.88-21.73 130.9-20.95L130.9-20.95Q130.9-19.04 130.93-17.92 130.95-16.8 130.95-15.48L130.95-15.48 130.95 0 125.04 0 125.04-14.99Q125.04-16.65 125.04-18.14 125.04-19.63 124.75-20.8 124.46-21.97 123.77-22.63 123.09-23.29 121.77-23.29L121.77-23.29Q121.33-23.29 120.55-23.17 119.77-23.05 118.91-22.75 118.06-22.46 117.2-22.02 116.35-21.58 115.76-21L115.76-21 115.76 0 109.81 0 109.81-27.54 115.13-27.54 115.76-24.71Q116.98-25.83 118.91-26.78 120.84-27.73 122.94-27.73L122.94-27.73Q125.29-27.73 126.85-26.71 128.41-25.68 129.97-23.68L129.97-23.68Q130.8-24.61 131.83-25.39 132.85-26.17 133.95-26.71 135.05-27.25 136.13-27.54 137.2-27.83 138.18-27.83L138.18-27.83Q139.84-27.83 141.3-27.17 142.77-26.51 143.86-25.29 144.96-24.07 145.57-22.39 146.18-20.7 146.18-18.75L146.18-18.75 146.18-15.48ZM166.1-27.83L166.1-27.83Q169.42-27.83 171.96-26.49 174.5-25.15 176.14-22.92 177.77-20.7 178.48-17.8 179.19-14.89 178.75-11.77L178.75-11.77 159.61-11.77Q159.61-10.21 160.2-8.89 160.78-7.57 161.78-6.62 162.78-5.66 164.17-5.13 165.57-4.59 167.18-4.59L167.18-4.59Q167.71-4.59 168.52-4.71 169.33-4.83 170.23-5.15 171.13-5.47 172.04-5.96 172.94-6.45 173.62-7.13L173.62-7.13 175.77-3.86Q174.16-1.86 172.01-0.83 169.86 0.2 166.54 0.2L166.54 0.2Q163.86 0.2 161.51-0.9 159.17-2 157.51-3.91 155.85-5.81 154.87-8.35 153.9-10.89 153.9-13.82L153.9-13.82Q153.9-16.7 154.87-19.26 155.85-21.83 157.49-23.73 159.12-25.63 161.37-26.73 163.61-27.83 166.1-27.83ZM159.8-16.06L173.28-16.06Q173.28-17.38 172.79-18.65 172.3-19.92 171.45-20.95 170.6-21.97 169.37-22.58 168.15-23.19 166.74-23.24L166.74-23.24Q165.22-23.24 163.95-22.66 162.69-22.07 161.76-21.09 160.83-20.12 160.32-18.77 159.8-17.43 159.8-16.06L159.8-16.06ZM211.07-19.19L211.07-19.19Q211.66-16.94 211.66-14.26L211.66-14.26Q211.66-11.47 211-8.84 210.34-6.2 209-4.17 207.65-2.15 205.63-0.95 203.6 0.24 200.87 0.24L200.87 0.24Q199.4 0.24 198.03-0.05 196.67-0.34 195.57-0.85 194.47-1.37 193.76-1.98 193.05-2.59 192.91-3.27L192.91-3.27Q192.86-2.59 192.76-1.71 192.66-0.83 192.61 0L192.61 0 187 0 187-37.94 192.91-37.94 192.91-24.76Q193.88-26.12 195.86-26.95 197.84-27.78 200.23-27.78L200.23-27.78Q201.84-27.78 203.5-27.34 205.16-26.9 206.6-25.88 208.04-24.85 209.24-23.19 210.44-21.53 211.07-19.19ZM198.86-4.39L198.86-4.39Q200.33-4.39 201.53-5.13 202.72-5.86 203.58-7.1 204.43-8.35 204.94-10.06 205.46-11.77 205.46-13.72L205.46-13.72Q205.46-15.63 204.99-17.33 204.53-19.04 203.72-20.36 202.92-21.68 201.75-22.46 200.57-23.24 199.11-23.24L199.11-23.24Q197.64-23.24 196.42-22.51 195.2-21.78 194.35-20.53 193.49-19.29 193.03-17.6 192.57-15.92 192.57-13.96L192.57-13.96Q192.57-12.01 192.98-10.28 193.4-8.54 194.23-7.25 195.06-5.96 196.2-5.18 197.35-4.39 198.86-4.39ZM233.77-27.73L233.77-21.58Q232.41-21.97 230.45-22.02L230.45-22.02Q228.7-22.02 226.96-21.61 225.23-21.19 224.2-20.21L224.2-20.21 224.2-9.77 224.2-9.67 224.2 0 218.3 0 218.3-27.54 223.57-27.54 224.2-24.71Q224.94-25.44 225.74-26.03 226.55-26.61 227.62-26.98 228.7-27.34 230.16-27.54 231.63-27.73 233.77-27.73L233.77-27.73ZM252.33-27.69L252.33-27.69Q255.16-27.69 257.45-26.59 259.75-25.49 261.36-23.58 262.97-21.68 263.85-19.14 264.73-16.6 264.73-13.67L264.73-13.67Q264.73-10.74 263.8-8.18 262.87-5.62 261.19-3.74 259.5-1.86 257.18-0.81 254.87 0.24 252.03 0.24L252.03 0.24Q249.15 0.24 246.78-0.83 244.42-1.9 242.78-3.81 241.14-5.71 240.27-8.25 239.39-10.79 239.39-13.77 239.39-16.75 240.34-19.34 241.29-21.92 242.98-23.75 244.66-25.59 247.05-26.64 249.45-27.69 252.33-27.69ZM251.94-4.39L251.94-4.39Q253.4-4.39 254.6-5.1 255.79-5.81 256.65-7.06 257.5-8.3 258.01-10.01 258.53-11.72 258.53-13.67L258.53-13.67Q258.53-15.63 258.06-17.33 257.6-19.04 256.79-20.34 255.99-21.63 254.82-22.41 253.64-23.19 252.18-23.19L252.18-23.19Q250.71-23.19 249.49-22.46 248.27-21.73 247.42-20.48 246.56-19.24 246.1-17.55 245.64-15.87 245.64-13.92L245.64-13.92Q245.64-11.96 246.05-10.23 246.47-8.5 247.3-7.23 248.13-5.96 249.27-5.18 250.42-4.39 251.94-4.39ZM287.87-27.73L287.87-21.58Q286.5-21.97 284.55-22.02L284.55-22.02Q282.79-22.02 281.06-21.61 279.33-21.19 278.3-20.21L278.3-20.21 278.3-9.77 278.3-9.67 278.3 0 272.39 0 272.39-27.54 277.67-27.54 278.3-24.71Q279.03-25.44 279.84-26.03 280.64-26.61 281.72-26.98 282.79-27.34 284.26-27.54 285.72-27.73 287.87-27.73L287.87-27.73Z" opacity="1" transform="matrix(1,0,0,1,0,0)" fill="#ffffff" class="wordmark-text-0" data-fill-palette-color="primary" id="text-0"></path></svg></g></svg></g></svg></g></svg></g><g transform="matrix(1,0,0,1,129.53993071321685,0)"><svg viewBox="0 0 138.4177385735662 73.65982362226435" height="73.65982362226435" width="138.4177385735662"><g><svg xmlns="http://www.w3.org/2000/svg" xmlns:xlink="http://www.w3.org/1999/xlink" version="1.1" x="0" y="0" viewBox="2.973285520437858 26.305999999999997 93.38239982692139 49.694" enable-background="new 0 0 100 100" xml:space="preserve" height="73.65982362226435" width="138.4177385735662" class="icon-icon-0" data-fill-palette-color="accent" id="icon-0"><circle cx="49.677" cy="35.638" r="9.3" fill="#ffffff" data-fill-palette-color="accent"></circle><circle cx="77.467" cy="39.087" r="7.8" fill="#ffffff" data-fill-palette-color="accent"></circle><g fill="#359756" data-fill-palette-color="accent"><path d="M96.085 70.657L90.069 56.096C89.267 56.511 88.771 56.612 87.557 56.981 86.619 57.254 82.533 58.258 73.048 58.258 70.339 58.258 68.07 58.174 66.172 58.052V68.947A5.294 5.294 0 0 0 71.466 74.241H83.465C85.743 74.241 87.671 72.792 88.417 70.772L89.493 73.378A3.565 3.565 0 1 0 96.085 70.657" fill="#ffffff" data-fill-palette-color="accent"></path></g><circle cx="21.889" cy="39.087" r="7.8" fill="#ffffff" data-fill-palette-color="accent"></circle><g fill="#359756" data-fill-palette-color="accent"><path d="M3.271 70.657L9.286 56.096C10.088 56.511 10.583 56.612 11.798 56.981 12.736 57.254 16.823 58.258 26.307 58.258 29.016 58.258 31.285 58.174 33.183 58.052V68.947A5.294 5.294 0 0 1 27.889 74.241H15.889C13.611 74.241 11.683 72.792 10.938 70.772L9.862 73.378A3.566 3.566 0 1 1 3.271 70.657" fill="#ffffff" data-fill-palette-color="accent"></path></g><path d="M87.352 49S77.981 50.273 72.944 50.273C69.561 50.273 64.235 49.835 61.094 49.459 59.972 48.47 58.503 48 56.89 48H42.466C40.852 48 39.383 48.47 38.261 49.459 35.12 49.836 29.794 50.341 26.412 50.341 21.375 50.341 12.004 49.034 12.004 49.034A3.34 3.34 0 0 0 8.648 52.371C8.648 54.225 9.603 55.003 12.415 55.84 12.415 55.84 15.596 56.989 26.255 56.989 30.581 56.989 34 56.775 36 56.526V69.998C36 73.514 38.951 76 42.466 76H56.89C60.404 76 63 73.514 63 69.999V56.527C66 56.776 68.598 56.986 72.922 56.986 83.58 56.986 86.876 55.832 86.876 55.832 89.688 54.995 90.676 54.21 90.676 52.355 90.676 50.503 89.204 49 87.352 49" fill="#ffffff" data-fill-palette-color="accent"></path></svg></g></svg></g><g></g></svg></g><defs></defs></svg><rect width="395.5199999999999" height="167.19328753788614" fill="none" stroke="none" visibility="hidden"></rect></g></svg></g></svg>